<svg xmlns="http://www.w3.org/2000/svg" width="100" height="100" viewBox="0 0 100 100"><rect width="100%" height="100%" fill="#e9ecef"/><path fill="#6c757d" d="M32.82 43.03h-8.67v5.41h6.83v2.8h-6.83v5.52h8.67v2.9H20.51V40.14h12.31zm5.63 3.62.2 1.56q.65-1.24 1.54-1.95t2.11-.71q.96 0 1.54.42l-.22 2.5q-.07.24-.19.34-.13.1-.35.1-.2 0-.6-.06-.4-.07-.78-.07-.55 0-.98.16t-.78.47q-.34.3-.61.73-.26.43-.49.99v8.53h-3.33V45.81h1.95q.52 0 .72.18t.27.66m10.07 0 .2 1.56q.65-1.24 1.54-1.95t2.11-.71q.96 0 1.54.42l-.22 2.5q-.07.24-.19.34-.13.1-.35.1-.2 0-.6-.06-.4-.07-.78-.07-.55 0-.98.16t-.78.47q-.34.3-.6.73-.27.43-.5.99v8.53h-3.33V45.81h1.96q.51 0 .71.18t.27.66m13.26-1.06q1.54 0 2.8.5t2.16 1.42 1.38 2.24q.49 1.32.49 2.96t-.49 2.97q-.48 1.32-1.38 2.25t-2.16 1.43-2.8.5q-1.55 0-2.82-.5t-2.17-1.43-1.39-2.25q-.49-1.33-.49-2.97t.49-2.96 1.39-2.24 2.17-1.42 2.82-.5m0 11.71q1.73 0 2.56-1.16t.83-3.41q0-2.24-.83-3.41-.83-1.18-2.56-1.18-1.76 0-2.6 1.19-.84 1.18-.84 3.4 0 2.23.84 3.4t2.6 1.17M74.1 46.65l.21 1.56q.64-1.24 1.54-1.95.89-.71 2.1-.71.96 0 1.54.42l-.22 2.5q-.06.24-.19.34t-.35.1q-.2 0-.6-.06-.39-.07-.77-.07-.56 0-.99.16t-.77.47q-.35.3-.61.73-.27.43-.49.99v8.53h-3.34V45.81h1.96q.51 0 .71.18.21.18.27.66"/></svg>